<svg id="Calque_1" data-name="Calque 1" xmlns="http://www.w3.org/2000/svg" viewBox="0 0 326.25 326.25"><defs><style>.cls-1{fill:#162625;}</style></defs><title>Plan de travail 15 copie 4</title><path class="cls-1" d="M249.12,85l-3.72-2.88a6.16,6.16,0,0,0-8.65,1.11L231,90.67a6.17,6.17,0,0,0,1.11,8.66l3.72,2.87c23.1,17.85,36.34,43.36,36.34,70,0,51.87-49.08,94.07-109.41,94.07S53.35,224.07,53.35,172.2a82.26,82.26,0,0,1,9.18-37.75,95.51,95.51,0,0,1,25.3-30.77c.61-.5,1.24-1,1.87-1.48l3.72-2.88a6.16,6.16,0,0,0,1.11-8.65l-5.75-7.44a6.18,6.18,0,0,0-8.66-1.11L76.4,85c-.76.58-1.51,1.18-2.25,1.78a117.14,117.14,0,0,0-31,37.77A103.8,103.8,0,0,0,31.61,172.2c0,31.22,13.83,60.48,39,82.4C95.26,276.15,128,288,162.76,288s67.5-11.87,92.2-33.42c25.12-21.92,39-51.18,39-82.4C293.92,138.78,277.59,107,249.12,85Z"/><path class="cls-1" d="M130.45,88.25a55.74,55.74,0,0,0,5.42,3.58,55.12,55.12,0,0,0-5.39,3.56,54.53,54.53,0,0,0-18.06,23.83,3.35,3.35,0,0,0,2.13,4.39l14.69,4.56a3.36,3.36,0,0,0,4.09-1.94,31.94,31.94,0,0,1,58.87,0,3.35,3.35,0,0,0,4.09,1.94L211,123.61a3.33,3.33,0,0,0,2.13-4.39,54.43,54.43,0,0,0-18-23.83,55.63,55.63,0,0,0-5.42-3.57A52.62,52.62,0,0,0,195,88.25a54.45,54.45,0,0,0,18.07-23.84A3.33,3.33,0,0,0,211,60l-14.69-4.56a3.36,3.36,0,0,0-4.09,1.94,31.7,31.7,0,0,1-19.68,18v-37H153v37A31.69,31.69,0,0,1,133.29,57.4a3.36,3.36,0,0,0-4.09-1.94L114.51,60a3.33,3.33,0,0,0-2.13,4.39A54.45,54.45,0,0,0,130.45,88.25Z"/><path class="cls-1" d="M89.79,165.4l.36-4a5.64,5.64,0,0,0-5.1-6.13l-7.94-.72-.51,0A5.62,5.62,0,0,0,71,159.69l-.36,4a73.16,73.16,0,0,0-.18,10.88,75.14,75.14,0,0,0,17.8,44.14,90.24,90.24,0,0,0,40.22,27.12l3.77,1.29a5.4,5.4,0,0,0,1.82.31,5.65,5.65,0,0,0,5.34-3.81l2.58-7.54a5.63,5.63,0,0,0-3.51-7.16l-3.77-1.29A71.15,71.15,0,0,1,103,206.32a56,56,0,0,1-13.34-32.89A55.14,55.14,0,0,1,89.79,165.4Z"/></svg>