<svg id="Calque_1" data-name="Calque 1" xmlns="http://www.w3.org/2000/svg" viewBox="0 0 326.25 326.25"><defs><style>.cls-1{fill:#142823;}</style></defs><title>Plan de travail 15 copie</title><path class="cls-1" d="M162.81,293.43c-19.69-.29-39.4,0-59.06-1-21.93-1.1-41.13-9.05-55.71-26.21-7.31-8.6-12-18.57-14.86-29.46-2.73-10.3-3.4-20.86-3.93-31.4a926.72,926.72,0,0,1,0-95.17c.52-9.76,1.31-19.64,3.38-29.16C37.5,58.76,50.42,42.56,71.42,33.18c10.32-4.61,21.23-6.76,32.45-7.71,31.77-2.69,63.59-1.54,95.39-1.35a242.37,242.37,0,0,1,31.15,2.39c19.12,2.62,36,10,48.75,25.17a63.61,63.61,0,0,1,14.16,30.23,231.86,231.86,0,0,1,3.16,27.55,935,935,0,0,1,0,97.48c-.51,9.61-1.3,19.33-3.36,28.69-5.17,23.5-18.84,40.49-41.2,50-12.32,5.26-25.29,7.18-38.62,7.15-16.83,0-33.67,0-50.5,0Zm2.13-239.81c-16.45,0-32.9-.09-49.35,0-9.89.08-19.74.91-29.22,4.11C74.12,61.9,65.33,69.61,61,82.07c-2.84,8.07-3.63,16.48-3.8,24.84-.56,26.56-.95,53.13-.84,79.69,0,13.87.21,27.84,3.23,41.49,2.6,11.76,9.07,20.78,20,26.32,9.29,4.71,19.3,6.39,29.54,6.72q53.74,1.72,107.49,0a77.3,77.3,0,0,0,24.05-4.28c10.81-3.89,18.85-10.78,23.35-21.6,3.61-8.67,4.45-17.85,4.65-27,.57-26.71.93-53.43.85-80.15-.05-13.56-.26-27.21-3.11-40.58-3.22-15.12-12.42-24.94-27-29.81-9.41-3.14-19.17-4-29-4.08C195.22,53.52,180.08,53.63,164.94,53.62Z"/><path class="cls-1" d="M228.15,161.26c0,28.45-17.71,53.83-44.05,63.21-30.31,10.79-64.34-2.63-79.57-31.4a67.31,67.31,0,0,1,32.13-93.32c30.2-13.47,66.66-.93,83,28.53A66.93,66.93,0,0,1,228.15,161.26Zm-27.73,0c0-21.28-16.93-38.6-37.87-38.66s-38.17,17.27-38.21,38.62,17.13,38.82,38,38.84S200.38,182.67,200.42,161.24Z"/><path class="cls-1" d="M233.92,79.77a15.39,15.39,0,0,1,0,30.78,15.39,15.39,0,0,1,0-30.78Z"/></svg>