<svg id="Calque_1" data-name="Calque 1" xmlns="http://www.w3.org/2000/svg" viewBox="0 0 326.25 326.25"><defs><style>.cls-1{fill:#0f2822;}</style></defs><title>Plan de travail 15 copie 11</title><path class="cls-1" d="M171.8,254.93a5.59,5.59,0,0,1-5.57-5.55l-.35-42.77a5.6,5.6,0,0,1,8.42-4.87l62.44,36.57a5.59,5.59,0,1,1-5.65,9.64l-54-31.59.26,32.93a5.59,5.59,0,0,1-5.54,5.64Z"/><circle class="cls-1" cx="171.31" cy="281.49" r="10.85"/><circle class="cls-1" cx="101.69" cy="275" r="10.85"/><circle class="cls-1" cx="244.7" cy="275.31" r="10.85"/><path class="cls-1" d="M234.65,172.17a5.51,5.51,0,0,1-3.85-1.55,45.46,45.46,0,0,0-35.63-12.4l-54.95,5.12a32.57,32.57,0,0,1-34.9-39.18l.34-1.6c4.65-22,4-38.84-2.08-53l-15.5-33A5.59,5.59,0,0,1,98.2,31.79l15.54,33.08c0,.06.05.12.08.17,7.05,16.42,7.93,35.43,2.77,59.83l-.33,1.6a21.39,21.39,0,0,0,22.92,25.74l55-5.12a56.62,56.62,0,0,1,44.38,15.45,5.59,5.59,0,0,1-3.87,9.63Z"/><path class="cls-1" d="M106.68,248.45A5.59,5.59,0,0,1,104,238l61.94-34.7L166,162a5.59,5.59,0,0,1,11.18,0l-.1,44.55a5.55,5.55,0,0,1-2.86,4.86l-64.79,36.3A5.62,5.62,0,0,1,106.68,248.45Z"/></svg>