<svg id="Calque_1" data-name="Calque 1" xmlns="http://www.w3.org/2000/svg" viewBox="0 0 326.25 326.25"><defs><style>.cls-1{fill:#162625;}</style></defs><title>Plan de travail 15 copie 10</title><path class="cls-1" d="M276.38,31.62l-5.11,1.79C211,54.48,174,43.09,144.2,34c-5.8-1.78-11.27-3.46-16.65-4.84-11.39-2.91-27.74-4.3-40.92,5.56C76.56,42.21,70.72,54.54,70.19,69.39v.1l-.44,209.76L69.53,285h.2l0,23.54a2,2,0,0,0,2,2l7.67,0a2,2,0,0,0,2-2l.06-29.09c.42-11.2,4.59-20.31,11.75-25.66,7.5-5.62,18.22-6.86,31-3.6,5.11,1.31,10.45,2.95,16.1,4.69,15.46,4.75,33,10.13,54.78,11.57,25.21,1.67,51.25-2.34,79.6-12.25l2.56-.9a2,2,0,0,0,1.35-1.9l.47-217.9A2,2,0,0,0,276.38,31.62ZM266.91,243a2,2,0,0,1-1.39,1.92c-57.16,18.61-92.89,7.63-121.77-1.24-5.79-1.79-11.26-3.47-16.65-4.84a65.65,65.65,0,0,0-15.94-2.14c-8.32,0-17.2,1.88-25,7.7-.92.69-1.8,1.42-2.65,2.18a1.2,1.2,0,0,1-2-.88l.37-176c.43-11.2,4.6-20.31,11.76-25.66,7.5-5.62,18.22-6.86,31-3.59,5.11,1.3,10.45,2.94,16.11,4.68,15.45,4.75,33,10.13,54.78,11.57C218,58.19,241,55.19,265.77,47.54a1.2,1.2,0,0,1,1.55,1.15Z"/><path class="cls-1" d="M216.67,112.71l-1.76-1.37a2.93,2.93,0,0,0-4.11.52l-2.73,3.52a2.93,2.93,0,0,0,.52,4.11l1.76,1.36c10.94,8.49,17.2,20.61,17.17,33.24-.05,24.61-23.38,44.58-52,44.52s-51.86-20.13-51.81-44.74a39.14,39.14,0,0,1,4.4-17.9,45.06,45.06,0,0,1,12-14.56c.29-.24.59-.47.89-.7l1.76-1.36a2.94,2.94,0,0,0,.54-4.11l-2.72-3.53a2.94,2.94,0,0,0-4.11-.54l-1.76,1.36c-.37.28-.72.56-1.08.85a55.53,55.53,0,0,0-14.73,17.88,49.31,49.31,0,0,0-5.53,22.59c0,14.81,6.5,28.7,18.4,39.12,11.69,10.25,27.21,15.91,43.7,15.95s32-5.56,43.76-15.76c11.94-10.37,18.53-24.24,18.56-39C237.87,138.26,230.15,123.17,216.67,112.71Z"/><path class="cls-1" d="M160.38,114.13a25.37,25.37,0,0,0,2.57,1.7,25.14,25.14,0,0,0-2.56,1.69,25.78,25.78,0,0,0-8.59,11.28,1.59,1.59,0,0,0,1,2.09l7,2.18a1.6,1.6,0,0,0,1.94-.92,15.15,15.15,0,0,1,27.92.06,1.59,1.59,0,0,0,1.94.92l7-2.15a1.58,1.58,0,0,0,1-2.08A25.83,25.83,0,0,0,191,117.58a25.24,25.24,0,0,0-2.56-1.7A26.33,26.33,0,0,0,191,114.2a25.87,25.87,0,0,0,8.59-11.29,1.59,1.59,0,0,0-1-2.09l-7-2.18a1.6,1.6,0,0,0-1.94.92,15.06,15.06,0,0,1-9.35,8.54l0-17.55-9.26,0,0,17.55a15,15,0,0,1-9.33-8.58,1.6,1.6,0,0,0-1.94-.93l-7,2.15a1.58,1.58,0,0,0-1,2.08A25.84,25.84,0,0,0,160.38,114.13Z"/><path class="cls-1" d="M141,150.68l.17-1.88a2.64,2.64,0,0,0-.6-2,2.69,2.69,0,0,0-1.81-1l-3.77-.35h-.24A2.67,2.67,0,0,0,132.1,148l-.17,1.88a35.12,35.12,0,0,0,8.3,26.11,42.83,42.83,0,0,0,19.05,12.91l1.79.62a2.82,2.82,0,0,0,.86.14,2.67,2.67,0,0,0,2.54-1.8l1.23-3.57a2.63,2.63,0,0,0-.13-2,2.6,2.6,0,0,0-1.53-1.36l-1.78-.62a33.76,33.76,0,0,1-15-10.12A26.59,26.59,0,0,1,141,154.49,25.49,25.49,0,0,1,141,150.68Z"/></svg>