<svg id="Calque_1" data-name="Calque 1" xmlns="http://www.w3.org/2000/svg" viewBox="0 0 326.25 326.25"><defs><style>.cls-1{fill:#142823;}</style></defs><title>Plan de travail 15 copie 9</title><path class="cls-1" d="M215.91,208.34l-105.85-.22a8.41,8.41,0,0,1-6-2.6,8.26,8.26,0,0,1-2.25-6.06,59.63,59.63,0,0,1,11.49-32.31,62.79,62.79,0,0,1,16-15.47,5.59,5.59,0,0,1,6.22,9.29,51.7,51.7,0,0,0-13.17,12.72,48.81,48.81,0,0,0-9.13,23.25l99.6.22a50.09,50.09,0,0,0-22.12-36.28,5.59,5.59,0,0,1,6.19-9.31,61.27,61.27,0,0,1,27.33,48.15,8.2,8.2,0,0,1-2.27,6.05A8.33,8.33,0,0,1,215.91,208.34Z"/><path class="cls-1" d="M163.09,157.84a36.27,36.27,0,1,1,36.34-36.19A36.31,36.31,0,0,1,163.09,157.84Zm.13-61.35a25.09,25.09,0,1,0,25,25.14A25.1,25.1,0,0,0,163.22,96.49Z"/><path class="cls-1" d="M264.66,32.87,62.05,32.44a3.41,3.41,0,0,0-3.41,3.4l-.42,198.34a3.42,3.42,0,0,0,1.86,3L161.27,288.8a3.38,3.38,0,0,0,3.08,0l101.42-51.15a3.41,3.41,0,0,0,1.87-3l.42-198.34A3.41,3.41,0,0,0,264.66,32.87Zm-8,195a3.39,3.39,0,0,1-1.87,3l-90.44,45.62a3.38,3.38,0,0,1-3.08,0l-90.25-46a3.39,3.39,0,0,1-1.85-3l.38-180.65A3.41,3.41,0,0,1,73,43.42l180.69.39a3.41,3.41,0,0,1,3.4,3.41Z"/></svg>