<svg id="Calque_1" data-name="Calque 1" xmlns="http://www.w3.org/2000/svg" viewBox="0 0 326.25 326.25"><defs><style>.cls-1{fill:#142823;}</style></defs><title>Plan de travail 15 copie 3</title><path class="cls-1" d="M37.32,49.91V267.13a20,20,0,0,0,20,20H274.61a20,20,0,0,0,20-20V49.86a20,20,0,0,0-20-20H57.38A20.06,20.06,0,0,0,37.32,49.91ZM113.14,249H75.5V126.34h37.64ZM95.46,109.12c-12,.54-22.31-9.08-22.92-21.45C72,76.05,81.37,66.22,93.68,65.57c12.08-.65,22.56,9.05,23.12,21.37C117.33,98.73,107.88,108.55,95.46,109.12ZM256.73,247.21v1.73H218.9v-1.56q0-31.62-.06-63.25c0-5.58-.37-11.13-2.31-16.44-2.58-7.09-7.73-10.88-15.19-11.27a37.41,37.41,0,0,0-9.33.64c-7,1.45-11.34,6-13.64,12.69a47.8,47.8,0,0,0-2.26,15.57q-.06,30.62,0,61.24v1.69H137.56V126.32h36.37v16.62c.53-.48.88-.66,1-.94,6.5-11.12,16.54-16.85,28.94-18.75a57.06,57.06,0,0,1,24.47,1.67c11.31,3.22,19,10.48,23.31,21.36A67,67,0,0,1,256.13,167c.41,6.5.55,13,.57,19.55C256.77,206.8,256.73,227,256.73,247.21Z"/></svg>