<svg id="Calque_1" data-name="Calque 1" xmlns="http://www.w3.org/2000/svg" viewBox="0 0 326.25 326.25"><defs><style>.cls-1{fill:#0f2822;}</style></defs><title>Plan de travail 15 copie 13</title><path class="cls-1" d="M202.67,107.71l-1.75-1.36a3.3,3.3,0,0,0-4.62.58l-2.72,3.51a3.3,3.3,0,0,0,.58,4.62l1.76,1.36c10.8,8.38,17,20.34,17,32.8-.05,24.3-23.11,44-51.4,44S110.2,173.31,110.25,149a38.47,38.47,0,0,1,4.33-17.66A44.82,44.82,0,0,1,126.46,117l.88-.69,1.76-1.35a3.29,3.29,0,0,0,.6-4.61L127,106.79a3.27,3.27,0,0,0-4.61-.6l-1.76,1.35c-.36.28-.72.56-1.07.85a55.7,55.7,0,0,0-14.77,17.93A49.52,49.52,0,0,0,99.23,149c0,14.86,6.52,28.8,18.45,39.25,11.71,10.26,27.25,15.94,43.76,16s32.08-5.57,43.83-15.79c12-10.4,18.58-24.31,18.62-39.16C223.92,133.34,216.19,118.21,202.67,107.71Z"/><path class="cls-1" d="M146.15,109.73c.67.5,1.36,1,2.07,1.39-.7.43-1.39.89-2.06,1.38a26.26,26.26,0,0,0-8.67,11.4,1.9,1.9,0,0,0,.06,1.55,1.94,1.94,0,0,0,1.17,1l6.94,2.17a1.94,1.94,0,0,0,2.38-1.13,14.72,14.72,0,0,1,27.13.06,2,2,0,0,0,1.8,1.23,2,2,0,0,0,.58-.09l6.94-2.14a2,2,0,0,0,1.25-2.56,26.23,26.23,0,0,0-8.63-11.44c-.67-.5-1.35-1-2.06-1.39.71-.43,1.4-.89,2.07-1.39a26.33,26.33,0,0,0,8.68-11.41,2,2,0,0,0-.06-1.54,2,2,0,0,0-1.18-1l-6.93-2.17a2,2,0,0,0-2.39,1.12,14.63,14.63,0,0,1-9,8.25l0-17.08h-9.22l0,17.08a14.63,14.63,0,0,1-9-8.29,1.94,1.94,0,0,0-2.38-1.14l-6.94,2.14a2,2,0,0,0-1.25,2.56A26.32,26.32,0,0,0,146.15,109.73Z"/><path class="cls-1" d="M127.1,145.83l.17-1.87a2.66,2.66,0,0,0-2.4-2.9l-3.75-.35h-.25a2.65,2.65,0,0,0-2.65,2.41l-.17,1.88a35,35,0,0,0,8.26,26,42.8,42.8,0,0,0,19,12.85l1.78.62a2.83,2.83,0,0,0,.87.14,2.67,2.67,0,0,0,2.52-1.79l1.23-3.56a2.68,2.68,0,0,0-.13-2,2.63,2.63,0,0,0-1.52-1.35l-1.78-.61a33.64,33.64,0,0,1-15-10.08A26.51,26.51,0,0,1,127,149.63,25.33,25.33,0,0,1,127.1,145.83Z"/><path class="cls-1" d="M244.33,62c-21.15-19.73-50.07-30.64-81.44-30.71S102.56,42,81.33,61.62c-22,20.33-34.12,49-34.19,80.71-.07,32.81,14.55,65.61,43.45,97.47,22.91,25.25,48.59,43.09,60.93,51.66l3.55,2.48a12.65,12.65,0,0,0,14.53,0c1-.7,2.19-1.52,3.56-2.47,12.38-8.51,38.13-26.24,61.15-51.4,29-31.74,43.79-64.47,43.86-97.28C278.24,111.11,266.22,82.39,244.33,62Zm-20.05,169c-22,24-46.86,41.15-58.82,49.38l-3.1,2.14-3.09-2.15c-11.93-8.29-36.74-25.52-58.61-49.63-26.56-29.28-40-59-39.93-88.31.06-28.3,10.37-52.77,29.83-70.77,18.7-17.31,44.38-26.81,72.3-26.75s53.57,9.67,72.2,27.06c19.37,18.08,29.58,42.59,29.52,70.9C264.52,172.11,251,201.77,224.28,230.93Z"/></svg>