<svg id="Calque_1" data-name="Calque 1" xmlns="http://www.w3.org/2000/svg" viewBox="0 0 326.25 326.25"><defs><style>.cls-1{fill:#0f2822;}</style></defs><title>Plan de travail 15 copie 4</title><path class="cls-1" d="M249.81,86.73l-3.71-2.88a6.17,6.17,0,0,0-8.66,1.09l-5.77,7.43a6.17,6.17,0,0,0,1.1,8.66l3.71,2.88c23.06,17.9,36.25,43.44,36.2,70.07-.11,51.88-49.28,94-109.61,93.85S53.75,225.39,53.86,173.52a82.21,82.21,0,0,1,9.26-37.73,95.38,95.38,0,0,1,25.35-30.71c.62-.5,1.25-1,1.88-1.48l3.73-2.87a6.16,6.16,0,0,0,1.12-8.65l-5.73-7.45a6.17,6.17,0,0,0-8.65-1.13l-3.73,2.87c-.76.58-1.51,1.18-2.26,1.78a117,117,0,0,0-31,37.7,103.8,103.8,0,0,0-11.67,47.62C32.05,204.69,45.82,234,70.89,256c24.66,21.6,57.37,33.54,92.13,33.61s67.53-11.72,92.27-33.22c25.17-21.87,39.06-51.1,39.13-82.32C294.49,140.61,278.23,108.79,249.81,86.73Z"/><path class="cls-1" d="M131.13,89.74a55.84,55.84,0,0,0,5.42,3.59A54.28,54.28,0,0,0,113,120.67a3.34,3.34,0,0,0,2.12,4.39l14.68,4.6a3.36,3.36,0,0,0,4.09-1.94,31.94,31.94,0,0,1,58.87.12,3.36,3.36,0,0,0,4.08,2l14.7-4.53a3.35,3.35,0,0,0,2.14-4.39,54.25,54.25,0,0,0-23.41-27.45,53.75,53.75,0,0,0,5.42-3.56,54.36,54.36,0,0,0,18.11-23.8,3.33,3.33,0,0,0-2.12-4.39L197,57.08A3.36,3.36,0,0,0,193,59a31.73,31.73,0,0,1-19.72,18l.08-37-19.52,0-.08,37A31.72,31.72,0,0,1,134,58.9a3.37,3.37,0,0,0-4.09-2l-14.7,4.53a3.35,3.35,0,0,0-2.14,4.39A54.49,54.49,0,0,0,131.13,89.74Z"/><path class="cls-1" d="M90.31,166.79l.37-4a5.64,5.64,0,0,0-5.09-6.14L77.65,156a4.36,4.36,0,0,0-.51,0,5.62,5.62,0,0,0-5.62,5.12l-.37,4a74.25,74.25,0,0,0,17.5,55,90.36,90.36,0,0,0,40.17,27.21l3.76,1.3a5.45,5.45,0,0,0,1.83.31,5.63,5.63,0,0,0,5.34-3.8l2.6-7.53a5.64,5.64,0,0,0-3.49-7.17l-3.77-1.3a71.11,71.11,0,0,1-31.66-21.34,56.08,56.08,0,0,1-13.27-32.92A56.75,56.75,0,0,1,90.31,166.79Z"/></svg>