<svg id="Calque_1" data-name="Calque 1" xmlns="http://www.w3.org/2000/svg" viewBox="0 0 326.25 326.25"><defs><style>.cls-1{fill:#142823;}</style></defs><title>Plan de travail 15 copie 2</title><path class="cls-1" d="M30.37,246c.23.17.35.29.48.37a155.76,155.76,0,0,0,69.62,23.62,165.58,165.58,0,0,0,28,.09,160.92,160.92,0,0,0,22.69-3.4,148.63,148.63,0,0,0,87.34-56.57,162.16,162.16,0,0,0,23.26-43.24,159.67,159.67,0,0,0,8.55-37.24,145.66,145.66,0,0,0,.69-22.1,1.06,1.06,0,0,1,.53-1.06,108.23,108.23,0,0,0,21.73-20.91c1.76-2.24,3.39-4.56,5.09-6.84l-.15-.19A111.23,111.23,0,0,1,266.94,87a56.05,56.05,0,0,0,24.13-30.44l-1.17.65a110.17,110.17,0,0,1-33.18,12.56,1,1,0,0,1-1.11-.35A54.36,54.36,0,0,0,217.49,52.6a53.21,53.21,0,0,0-25.88,5.6,55,55,0,0,0-30.2,57.15c.21,1.56.52,3.11.82,4.9-46-3.17-83.7-22.46-113.42-57.5a53.78,53.78,0,0,0-7.05,34c2.07,16.58,10.24,29.55,24,39.32a54.94,54.94,0,0,1-24.82-6.85,54.6,54.6,0,0,0,12.19,35.16,55.46,55.46,0,0,0,31.56,19.54,49.27,49.27,0,0,1-12.13,1.88,55.48,55.48,0,0,1-12.24-.93,53.85,53.85,0,0,0,14.31,22.9,55.3,55.3,0,0,0,36.77,15.41C87.44,241.51,60.45,248.89,30.37,246Z"/><path class="cls-1" d="M30.37,246c30.08,2.94,57.07-4.44,81-22.76a55.3,55.3,0,0,1-36.77-15.41,53.85,53.85,0,0,1-14.31-22.9,55.48,55.48,0,0,0,12.24.93,49.27,49.27,0,0,0,12.13-1.88,55.46,55.46,0,0,1-31.56-19.54A54.6,54.6,0,0,1,40.9,129.23a54.94,54.94,0,0,0,24.82,6.85c-13.72-9.77-21.89-22.74-24-39.32a53.78,53.78,0,0,1,7.05-34c29.72,35,67.41,54.33,113.42,57.5-.3-1.79-.61-3.34-.82-4.9a55,55,0,0,1,30.2-57.15,53.21,53.21,0,0,1,25.88-5.6,54.36,54.36,0,0,1,38.12,16.84,1,1,0,0,0,1.11.35A110.17,110.17,0,0,0,289.9,57.23l1.17-.65A56.05,56.05,0,0,1,266.94,87a111.23,111.23,0,0,0,31.25-8.54l.15.19c-1.7,2.28-3.33,4.6-5.09,6.84a108.23,108.23,0,0,1-21.73,20.91,1.06,1.06,0,0,0-.53,1.06,145.66,145.66,0,0,1-.69,22.1,159.67,159.67,0,0,1-8.55,37.24,162.16,162.16,0,0,1-23.26,43.24,148.63,148.63,0,0,1-87.34,56.57,160.92,160.92,0,0,1-22.69,3.4,165.58,165.58,0,0,1-28-.09,155.76,155.76,0,0,1-69.62-23.62C30.72,246.24,30.6,246.12,30.37,246Z"/></svg>