<svg id="Calque_1" data-name="Calque 1" xmlns="http://www.w3.org/2000/svg" viewBox="0 0 326.25 326.25"><defs><style>.cls-1{fill:#0f2822;}</style></defs><title>Plan de travail 15 copie 12</title><path class="cls-1" d="M151.46,276.85a77.36,77.36,0,0,1-77.11-77.44l.1-45.13a5.59,5.59,0,0,1,5.6-5.58l143.36.31a5.58,5.58,0,0,1,5.58,5.6l-.1,45.13A77.36,77.36,0,0,1,151.46,276.85Zm-65.85-117-.08,39.55a66.1,66.1,0,0,0,132.19.28l.08-39.55Z"/><path class="cls-1" d="M238.51,213.35l-16.73,0,0-11.18,16.73,0a21,21,0,1,0,.09-42l-16.73,0,0-11.18,16.72,0a32.16,32.16,0,1,1-.13,64.31Z"/><path class="cls-1" d="M105,123.37a5.58,5.58,0,0,1-5.57-5.6l.07-36.49a5.59,5.59,0,0,1,11.18,0l-.08,36.48A5.58,5.58,0,0,1,105,123.37Z"/><path class="cls-1" d="M150.16,123.47a5.6,5.6,0,0,1-5.58-5.61l.13-59.53a5.59,5.59,0,0,1,11.18,0l-.13,59.53A5.59,5.59,0,0,1,150.16,123.47Z"/><path class="cls-1" d="M195.29,123.56a5.59,5.59,0,0,1-5.58-5.6l.08-36.49a5.59,5.59,0,0,1,11.18,0L200.89,118A5.59,5.59,0,0,1,195.29,123.56Z"/></svg>